<?xml version="1.0" encoding="utf-8"?>
<!-- Generator: Adobe Illustrator 22.0.1, SVG Export Plug-In . SVG Version: 6.00 Build 0)  -->
<svg version="1.1" id="Layer_1" xmlns="http://www.w3.org/2000/svg" xmlns:xlink="http://www.w3.org/1999/xlink" x="0px" y="0px"
	 viewBox="0 0 337.5 270" style="enable-background:new 0 0 337.5 270;" xml:space="preserve">
<style type="text/css">
	.st0{fill:#EDECEA;}
	.st1{fill:#D46855;}
	.st2{fill:#CC3014;}
	.st3{fill:#99240F;}
	.st4{fill:#4C251E;}
	.st5{fill:#4C1207;}
	.st6{fill:#D8FF7F;}
	.st7{fill:#C0FF33;}
	.st8{fill:#9ACC29;}
	.st9{fill:#6C7F40;}
	.st10{fill:#607F19;}
	.st11{fill:#98BCFF;}
	.st12{fill:#4C8AFF;}
	.st13{fill:#3D6ECC;}
	.st14{fill:#4C5E7F;}
	.st15{fill:#26457F;}
	.st16{fill:#FFFFFF;}
	.st17{fill:#AAAAAA;}
	.st18{fill:#444444;}
	.st19{fill:#222222;}
</style>
<g>
	<rect x="0" y="0.5" class="st0" width="337" height="269.6"/>
</g>
<g>
	<rect x="31" y="25.3" class="st1" width="55" height="55"/>
</g>
<g>
	<rect x="86" y="25.3" class="st2" width="55" height="55"/>
</g>
<g>
	<rect x="141" y="25.3" class="st3" width="55" height="55"/>
</g>
<g>
	<rect x="196" y="25.3" class="st4" width="55" height="55"/>
</g>
<g>
	<rect x="251" y="25.3" class="st5" width="55" height="55"/>
</g>
<g>
	<rect x="31" y="80.3" class="st6" width="55" height="55"/>
</g>
<g>
	<rect x="86" y="80.3" class="st7" width="55" height="55"/>
</g>
<g>
	<rect x="141" y="80.3" class="st8" width="55" height="55"/>
</g>
<g>
	<rect x="196" y="80.3" class="st9" width="55" height="55"/>
</g>
<g>
	<rect x="251" y="80.3" class="st10" width="55" height="55"/>
</g>
<g>
	<rect x="31" y="135.3" class="st11" width="55" height="55"/>
</g>
<g>
	<rect x="86" y="135.3" class="st12" width="55" height="55"/>
</g>
<g>
	<rect x="141" y="135.3" class="st13" width="55" height="55"/>
</g>
<g>
	<rect x="196" y="135.3" class="st14" width="55" height="55"/>
</g>
<g>
	<rect x="251" y="135.3" class="st15" width="55" height="55"/>
</g>
<g>
	<rect x="31" y="190.3" class="st16" width="55" height="55"/>
</g>
<g>
	<rect x="86" y="190.3" class="st17" width="55" height="55"/>
</g>
<g>
	<rect x="141" y="190.3" class="st18" width="55" height="55"/>
</g>
<g>
	<rect x="196" y="190.3" class="st19" width="55" height="55"/>
</g>
<g>
	<rect x="251" y="190.3" width="55" height="55"/>
</g>
</svg>
